<svg aria-roledescription="flowchart-v2" role="graphics-document document" viewBox="-8 -8 2119.9375 1128.60498046875" style="max-width: 2119.94px; background-color: white;" xmlns:xlink="http://www.w3.org/1999/xlink" xmlns="http://www.w3.org/2000/svg" width="100%" id="my-svg"><style>#my-svg{font-family:"trebuchet ms",verdana,arial,sans-serif;font-size:16px;fill:#333;}#my-svg .error-icon{fill:#552222;}#my-svg .error-text{fill:#552222;stroke:#552222;}#my-svg .edge-thickness-normal{stroke-width:2px;}#my-svg .edge-thickness-thick{stroke-width:3.5px;}#my-svg .edge-pattern-solid{stroke-dasharray:0;}#my-svg .edge-pattern-dashed{stroke-dasharray:3;}#my-svg .edge-pattern-dotted{stroke-dasharray:2;}#my-svg .marker{fill:#333333;stroke:#333333;}#my-svg .marker.cross{stroke:#333333;}#my-svg svg{font-family:"trebuchet ms",verdana,arial,sans-serif;font-size:16px;}#my-svg .label{font-family:"trebuchet ms",verdana,arial,sans-serif;color:#333;}#my-svg .cluster-label text{fill:#333;}#my-svg .cluster-label span,#my-svg p{color:#333;}#my-svg .label text,#my-svg span,#my-svg p{fill:#333;color:#333;}#my-svg .node rect,#my-svg .node circle,#my-svg .node ellipse,#my-svg .node polygon,#my-svg .node path{fill:#ECECFF;stroke:#9370DB;stroke-width:1px;}#my-svg .flowchart-label text{text-anchor:middle;}#my-svg .node .katex path{fill:#000;stroke:#000;stroke-width:1px;}#my-svg .node .label{text-align:center;}#my-svg .node.clickable{cursor:pointer;}#my-svg .arrowheadPath{fill:#333333;}#my-svg .edgePath .path{stroke:#333333;stroke-width:2.0px;}#my-svg .flowchart-link{stroke:#333333;fill:none;}#my-svg .edgeLabel{background-color:#e8e8e8;text-align:center;}#my-svg .edgeLabel rect{opacity:0.5;background-color:#e8e8e8;fill:#e8e8e8;}#my-svg .labelBkg{background-color:rgba(232, 232, 232, 0.5);}#my-svg .cluster rect{fill:#ffffde;stroke:#aaaa33;stroke-width:1px;}#my-svg .cluster text{fill:#333;}#my-svg .cluster span,#my-svg p{color:#333;}#my-svg div.mermaidTooltip{position:absolute;text-align:center;max-width:200px;padding:2px;font-family:"trebuchet ms",verdana,arial,sans-serif;font-size:12px;background:hsl(80, 100%, 96.2745098039%);border:1px solid #aaaa33;border-radius:2px;pointer-events:none;z-index:100;}#my-svg .flowchartTitleText{text-anchor:middle;font-size:18px;fill:#333;}#my-svg :root{--mermaid-font-family:"trebuchet ms",verdana,arial,sans-serif;}</style><g><marker orient="auto" markerHeight="12" markerWidth="12" markerUnits="userSpaceOnUse" refY="5" refX="6" viewBox="0 0 10 10" class="marker flowchart" id="my-svg_flowchart-pointEnd"><path style="stroke-width: 1; stroke-dasharray: 1, 0;" class="arrowMarkerPath" d="M 0 0 L 10 5 L 0 10 z"/></marker><marker orient="auto" markerHeight="12" markerWidth="12" markerUnits="userSpaceOnUse" refY="5" refX="4.5" viewBox="0 0 10 10" class="marker flowchart" id="my-svg_flowchart-pointStart"><path style="stroke-width: 1; stroke-dasharray: 1, 0;" class="arrowMarkerPath" d="M 0 5 L 10 10 L 10 0 z"/></marker><marker orient="auto" markerHeight="11" markerWidth="11" markerUnits="userSpaceOnUse" refY="5" refX="11" viewBox="0 0 10 10" class="marker flowchart" id="my-svg_flowchart-circleEnd"><circle style="stroke-width: 1; stroke-dasharray: 1, 0;" class="arrowMarkerPath" r="5" cy="5" cx="5"/></marker><marker orient="auto" markerHeight="11" markerWidth="11" markerUnits="userSpaceOnUse" refY="5" refX="-1" viewBox="0 0 10 10" class="marker flowchart" id="my-svg_flowchart-circleStart"><circle style="stroke-width: 1; stroke-dasharray: 1, 0;" class="arrowMarkerPath" r="5" cy="5" cx="5"/></marker><marker orient="auto" markerHeight="11" markerWidth="11" markerUnits="userSpaceOnUse" refY="5.2" refX="12" viewBox="0 0 11 11" class="marker cross flowchart" id="my-svg_flowchart-crossEnd"><path style="stroke-width: 2; stroke-dasharray: 1, 0;" class="arrowMarkerPath" d="M 1,1 l 9,9 M 10,1 l -9,9"/></marker><marker orient="auto" markerHeight="11" markerWidth="11" markerUnits="userSpaceOnUse" refY="5.2" refX="-1" viewBox="0 0 11 11" class="marker cross flowchart" id="my-svg_flowchart-crossStart"><path style="stroke-width: 2; stroke-dasharray: 1, 0;" class="arrowMarkerPath" d="M 1,1 l 9,9 M 10,1 l -9,9"/></marker><g class="root"><g class="clusters"><g id="Offline" class="cluster default flowchart-label"><rect height="155.40646934509277" width="1560.9375" y="662.5735816955566" x="0" ry="0" rx="0" style=""/><g transform="translate(652.7265625, 662.5735816955566)" class="cluster-label"><foreignObject height="18.5" width="255.484375"><div style="display: inline-block; white-space: nowrap;" xmlns="http://www.w3.org/1999/xhtml"><span class="nodeLabel">Offline Update and Evaluation Loop</span></div></foreignObject></g></g><g id="Handoff" class="cluster default flowchart-label"><rect height="216.52578926086426" width="698.8203125" y="0" x="1212.015625" ry="0" rx="0" style=""/><g transform="translate(1477.23828125, 0)" class="cluster-label"><foreignObject height="18.5" width="168.375"><div style="display: inline-block; white-space: nowrap;" xmlns="http://www.w3.org/1999/xhtml"><span class="nodeLabel">Handoff and Monitoring</span></div></foreignObject></g></g><g id="State" class="cluster default flowchart-label"><rect height="406.0477924346924" width="742.3984375" y="236.52578926086426" x="818.5390625" ry="0" rx="0" style=""/><g transform="translate(1114.59765625, 236.52578926086426)" class="cluster-label"><foreignObject height="18.5" width="150.28125"><div style="display: inline-block; white-space: nowrap;" xmlns="http://www.w3.org/1999/xhtml"><span class="nodeLabel">State and Knowledge</span></div></foreignObject></g></g><g id="Serving" class="cluster default flowchart-label"><rect height="633.8493709564209" width="268.5859375" y="5.875" x="345.6796875" ry="0" rx="0" style=""/><g transform="translate(385.21484375, 5.875)" class="cluster-label"><foreignObject height="18.5" width="189.515625"><div style="display: inline-block; white-space: nowrap;" xmlns="http://www.w3.org/1999/xhtml"><span class="nodeLabel">Shared Orchestration Core</span></div></foreignObject></g></g><g id="Voice_Path" class="cluster default flowchart-label"><rect height="185.25" width="1285.3984375" y="927.3550510406494" x="818.5390625" ry="0" rx="0" style=""/><g transform="translate(1391.87890625, 927.3550510406494)" class="cluster-label"><foreignObject height="18.5" width="138.71875"><div style="display: inline-block; white-space: nowrap;" xmlns="http://www.w3.org/1999/xhtml"><span class="nodeLabel">Voice Runtime Path</span></div></foreignObject></g></g><g id="Channels" class="cluster default flowchart-label"><rect height="187" width="295.6796875" y="837.9800510406494" x="0" ry="0" rx="0" style=""/><g transform="translate(115.77734375, 837.9800510406494)" class="cluster-label"><foreignObject height="18.5" width="64.125"><div style="display: inline-block; white-space: nowrap;" xmlns="http://www.w3.org/1999/xhtml"><span class="nodeLabel">Channels</span></div></foreignObject></g></g></g><g class="edgePaths"><path marker-end="url(#my-svg_flowchart-pointEnd)" style="fill:none;" class="edge-thickness-normal edge-pattern-solid flowchart-link LS-Chat LE-API" id="L-Chat-API-0" d="M221.996,889.73L234.277,889.73C246.557,889.73,271.118,889.73,287.566,815.971C304.013,742.211,312.346,594.693,320.68,520.933C329.013,447.174,337.346,447.174,345.644,447.174C353.942,447.174,362.204,447.174,366.335,447.174L370.466,447.174"/><path marker-end="url(#my-svg_flowchart-pointEnd)" style="fill:none;" class="edge-thickness-normal edge-pattern-solid flowchart-link LS-Voice LE-SBC" id="L-Voice-SBC-0" d="M210.773,973.23L224.924,973.23C239.076,973.23,267.378,973.23,285.695,973.23C304.013,973.23,312.346,973.23,320.68,973.23C329.013,973.23,337.346,973.23,363.895,973.23C390.444,973.23,435.208,973.23,479.973,973.23C524.737,973.23,569.501,973.23,608.906,973.23C648.311,973.23,682.357,973.23,716.402,973.23C750.448,973.23,784.493,973.23,820.557,973.23C856.621,973.23,894.703,973.23,944.451,973.23C994.198,973.23,1055.611,973.23,1102.149,973.23C1148.688,973.23,1180.352,973.23,1210.819,976.24C1241.287,979.249,1270.558,985.268,1285.194,988.278L1299.83,991.288"/><path marker-end="url(#my-svg_flowchart-pointEnd)" style="fill:none;" class="edge-thickness-normal edge-pattern-solid flowchart-link LS-SBC LE-Turn" id="L-SBC-Turn-0" d="M1535.938,1009.105L1540.104,1009.105C1544.271,1009.105,1552.604,1009.105,1560.938,1009.105C1569.271,1009.105,1577.604,1009.105,1586.66,1009.105C1595.715,1009.105,1605.493,1009.105,1610.382,1009.105L1615.27,1009.105"/><path marker-end="url(#my-svg_flowchart-pointEnd)" style="fill:none;" class="edge-thickness-normal edge-pattern-solid flowchart-link LS-Turn LE-STT" id="L-Turn-STT-0" d="M1876.203,1009.105L1881.975,1009.105C1887.747,1009.105,1899.292,1009.105,1909.23,1009.105C1919.169,1009.105,1927.503,1009.105,1937.461,1011.293C1947.42,1013.481,1959.003,1017.856,1964.795,1020.044L1970.587,1022.232"/><path marker-end="url(#my-svg_flowchart-pointEnd)" style="fill:none;" class="edge-thickness-normal edge-pattern-solid flowchart-link LS-STT LE-API" id="L-STT-API-0" d="M1980.643,1057.605L1973.176,1060.793C1965.708,1063.98,1950.772,1070.355,1939.137,1073.543C1927.503,1076.73,1919.169,1076.73,1887.928,1076.73C1856.686,1076.73,1802.536,1076.73,1748.387,1076.73C1694.237,1076.73,1640.087,1076.73,1608.846,1076.73C1577.604,1076.73,1569.271,1076.73,1536.027,1076.73C1502.784,1076.73,1444.63,1076.73,1386.477,1076.73C1328.323,1076.73,1270.169,1076.73,1225.26,1076.73C1180.352,1076.73,1148.688,1076.73,1102.149,1076.73C1055.611,1076.73,994.198,1076.73,944.451,1076.73C894.703,1076.73,856.621,1076.73,820.557,1076.73C784.493,1076.73,750.448,1076.73,716.402,1000.088C682.357,923.445,648.311,770.16,611.664,668.718C575.016,567.277,535.766,517.678,516.141,492.879L496.517,468.08"/><path marker-end="url(#my-svg_flowchart-pointEnd)" style="fill:none;" class="edge-thickness-normal edge-pattern-solid flowchart-link LS-API LE-TTS" id="L-API-TTS-0" d="M494.999,463.924L514.876,486.082C534.754,508.241,574.51,552.558,611.411,646.067C648.311,739.577,682.357,882.278,716.402,953.629C750.448,1024.98,784.493,1024.98,809.617,1024.98C834.741,1024.98,850.943,1024.98,859.044,1024.98L867.145,1024.98"/><path marker-end="url(#my-svg_flowchart-pointEnd)" style="fill:none;" class="edge-thickness-normal edge-pattern-solid flowchart-link LS-TTS LE-SBC" id="L-TTS-SBC-0" d="M993.125,1024.98L1013.775,1024.98C1034.424,1024.98,1075.724,1024.98,1112.206,1024.98C1148.688,1024.98,1180.352,1024.98,1199.471,1024.681C1218.59,1024.382,1225.163,1023.784,1228.45,1023.485L1231.737,1023.185"/><path marker-end="url(#my-svg_flowchart-pointEnd)" marker-start="url(#my-svg_flowchart-pointStart)" style="fill:none;" class="edge-thickness-normal edge-pattern-solid flowchart-link LS-API LE-Memory" id="L-API-Memory-0" d="M500.058,426.635L519.093,407.17C538.127,387.706,576.197,348.777,612.254,329.313C648.311,309.848,682.357,309.848,716.402,309.848C750.448,309.848,784.493,309.848,805.565,309.848C826.637,309.848,834.735,309.848,838.784,309.848L842.833,309.848"/><path marker-end="url(#my-svg_flowchart-pointEnd)" style="fill:none;" class="edge-thickness-normal edge-pattern-solid flowchart-link LS-API LE-Alias" id="L-API-Alias-0" d="M549.716,463.924L560.474,466.508C571.232,469.092,592.749,474.259,620.53,476.843C648.311,479.427,682.357,479.427,716.402,479.427C750.448,479.427,784.493,479.427,804.8,479.427C825.106,479.427,831.672,479.427,834.956,479.427L838.239,479.427"/><path marker-end="url(#my-svg_flowchart-pointEnd)" style="fill:none;" class="edge-thickness-normal edge-pattern-solid flowchart-link LS-Alias LE-Qdrant" id="L-Alias-Qdrant-0" d="M1022.031,479.427L1037.863,479.427C1053.695,479.427,1085.359,479.427,1117.023,479.427C1148.688,479.427,1180.352,479.427,1219.007,479.427C1257.663,479.427,1303.31,479.427,1326.134,479.427L1348.958,479.427"/><path marker-end="url(#my-svg_flowchart-pointEnd)" style="fill:none;" class="edge-thickness-normal edge-pattern-solid flowchart-link LS-API LE-LLM" id="L-API-LLM-0" d="M515.118,430.424L531.643,422.548C548.167,414.673,581.216,398.922,614.764,391.047C648.311,383.171,682.357,383.171,716.402,383.171C750.448,383.171,784.493,383.171,820.557,383.171C856.621,383.171,894.703,383.171,944.451,383.171C994.198,383.171,1055.611,383.171,1102.149,383.171C1148.688,383.171,1180.352,383.171,1204.856,383.171C1229.36,383.171,1246.704,383.171,1255.376,383.171L1264.048,383.171"/><path marker-end="url(#my-svg_flowchart-pointEnd)" style="fill:none;" class="edge-thickness-normal edge-pattern-solid flowchart-link LS-API LE-SQL" id="L-API-SQL-0" d="M497.316,463.924L516.807,482.749C536.299,501.574,575.282,539.225,611.797,558.05C648.311,576.875,682.357,576.875,716.402,576.875C750.448,576.875,784.493,576.875,813.505,576.875C842.516,576.875,866.493,576.875,878.481,576.875L890.47,576.875"/><path marker-end="url(#my-svg_flowchart-pointEnd)" style="fill:none;" class="edge-thickness-normal edge-pattern-solid flowchart-link LS-API LE-Escalation" id="L-API-Escalation-0" d="M485.661,430.424L507.095,367.312C528.529,304.199,571.398,177.975,609.854,114.862C648.311,51.75,682.357,51.75,716.402,51.75C750.448,51.75,784.493,51.75,820.557,51.75C856.621,51.75,894.703,51.75,944.451,51.75C994.198,51.75,1055.611,51.75,1102.149,51.75C1148.688,51.75,1180.352,51.75,1207.818,51.75C1235.285,51.75,1258.555,51.75,1270.19,51.75L1281.825,51.75"/><path marker-end="url(#my-svg_flowchart-pointEnd)" style="fill:none;" class="edge-thickness-normal edge-pattern-solid flowchart-link LS-Escalation LE-Agents" id="L-Escalation-Agents-0" d="M1485.828,51.75L1498.346,51.75C1510.865,51.75,1535.901,51.75,1552.586,51.75C1569.271,51.75,1577.604,51.75,1594.104,51.75C1610.604,51.75,1635.271,51.75,1647.605,51.75L1659.938,51.75"/><path marker-end="url(#my-svg_flowchart-pointEnd)" style="fill:none;" class="edge-thickness-normal edge-pattern-solid flowchart-link LS-API LE-Obs" id="L-API-Obs-0" d="M486.518,430.424L507.809,375.937C529.1,321.449,571.683,212.475,609.997,157.987C648.311,103.5,682.357,103.5,716.402,103.5C750.448,103.5,784.493,103.5,820.557,103.5C856.621,103.5,894.703,103.5,944.451,103.5C994.198,103.5,1055.611,103.5,1102.149,103.5C1148.688,103.5,1180.352,103.5,1225.26,103.5C1270.169,103.5,1328.323,103.5,1386.477,103.5C1444.63,103.5,1502.784,103.5,1536.027,103.5C1569.271,103.5,1577.604,103.5,1599.453,109.272C1621.303,115.044,1656.668,126.587,1674.351,132.359L1692.033,138.131"/><path marker-end="url(#my-svg_flowchart-pointEnd)" style="fill:none;" class="edge-thickness-normal edge-pattern-solid flowchart-link LS-LLM LE-Obs" id="L-LLM-Obs-0" d="M1503.605,383.171L1513.161,383.171C1522.716,383.171,1541.827,383.171,1555.549,339.893C1569.271,296.614,1577.604,210.057,1594.248,169.315C1610.892,128.573,1635.847,133.647,1648.325,136.183L1660.802,138.72"/><path marker-end="url(#my-svg_flowchart-pointEnd)" style="fill:none;" class="edge-thickness-normal edge-pattern-solid flowchart-link LS-Qdrant LE-Obs" id="L-Qdrant-Obs-0" d="M1418.695,479.427L1442.402,479.427C1466.109,479.427,1513.523,479.427,1541.397,423.439C1569.271,367.451,1577.604,255.476,1585.057,199.751C1592.51,144.027,1599.082,144.554,1602.368,144.817L1605.654,145.081"/><path marker-end="url(#my-svg_flowchart-pointEnd)" style="fill:none;" class="edge-thickness-normal edge-pattern-solid flowchart-link LS-SQL LE-Obs" id="L-SQL-Obs-0" d="M969.801,573.566L994.338,571.372C1018.875,569.179,1067.949,564.791,1108.318,562.597C1148.688,560.404,1180.352,560.404,1225.26,560.404C1270.169,560.404,1328.323,560.404,1386.477,560.404C1444.63,560.404,1502.784,560.404,1536.027,494.253C1569.271,428.103,1577.604,295.801,1585.055,229.51C1592.506,163.218,1599.074,162.936,1602.358,162.795L1605.642,162.654"/><path marker-end="url(#my-svg_flowchart-pointEnd)" style="fill:none;stroke-width:2px;stroke-dasharray:3;" class="edge-thickness-normal edge-pattern-dotted flowchart-link LS-Store LE-Ingestion" id="L-Store-Ingestion-0" d="M270.68,739.178L274.846,739.178C279.013,739.178,287.346,739.178,295.68,739.178C304.013,739.178,312.346,739.178,320.68,739.178C329.013,739.178,337.346,739.178,344.796,739.178C352.246,739.178,358.813,739.178,362.096,739.178L365.38,739.178"/><path marker-end="url(#my-svg_flowchart-pointEnd)" style="fill:none;" class="edge-thickness-normal edge-pattern-solid flowchart-link LS-Ingestion LE-Embed" id="L-Ingestion-Embed-0" d="M589.266,751.08L593.432,751.534C597.599,751.988,605.932,752.895,627.122,753.349C648.311,753.803,682.357,753.803,716.402,753.803C750.448,753.803,784.493,753.803,807.241,753.803C829.989,753.803,841.438,753.803,847.163,753.803L852.888,753.803"/><path marker-end="url(#my-svg_flowchart-pointEnd)" style="fill:none;" class="edge-thickness-normal edge-pattern-solid flowchart-link LS-Embed LE-Qdrant" id="L-Embed-Qdrant-0" d="M1007.383,753.803L1025.656,753.803C1043.93,753.803,1080.477,753.803,1114.582,753.803C1148.688,753.803,1180.352,753.803,1221.662,713.473C1262.972,673.143,1313.928,592.483,1339.407,552.153L1364.885,511.823"/><path marker-end="url(#my-svg_flowchart-pointEnd)" style="fill:none;stroke-width:2px;stroke-dasharray:3;" class="edge-thickness-normal edge-pattern-dotted flowchart-link LS-Ingestion LE-Alias" id="L-Ingestion-Alias-0" d="M574.976,722.428L581.524,721.273C588.072,720.119,601.169,717.81,624.74,716.655C648.311,715.501,682.357,715.501,716.402,715.501C750.448,715.501,784.493,715.501,818.821,679.742C853.15,643.983,887.76,572.465,905.065,536.706L922.37,500.947"/><path marker-end="url(#my-svg_flowchart-pointEnd)" style="fill:none;stroke-width:2px;stroke-dasharray:3;" class="edge-thickness-normal edge-pattern-dotted flowchart-link LS-SQL LE-Eval" id="L-SQL-Eval-0" d="M969.801,580.537L994.338,582.964C1018.875,585.391,1067.949,590.245,1108.318,592.672C1148.688,595.099,1180.352,595.099,1221.254,616.12C1262.156,637.14,1312.297,679.18,1337.367,700.2L1362.438,721.221"/><path marker-end="url(#my-svg_flowchart-pointEnd)" style="fill:none;" class="edge-thickness-normal edge-pattern-solid flowchart-link LS-Eval LE-Obs" id="L-Eval-Obs-0" d="M1463.254,741.376L1479.535,741.376C1495.815,741.376,1528.376,741.376,1548.824,648.396C1569.271,555.417,1577.604,369.459,1591.162,274.92C1604.719,180.381,1623.501,177.263,1632.892,175.703L1642.283,174.144"/></g><g class="edgeLabels"><g class="edgeLabel"><g transform="translate(0, 0)" class="label"><foreignObject height="0" width="0"><div style="display: inline-block; white-space: nowrap;" xmlns="http://www.w3.org/1999/xhtml"><span class="edgeLabel"></span></div></foreignObject></g></g><g class="edgeLabel"><g transform="translate(0, 0)" class="label"><foreignObject height="0" width="0"><div style="display: inline-block; white-space: nowrap;" xmlns="http://www.w3.org/1999/xhtml"><span class="edgeLabel"></span></div></foreignObject></g></g><g class="edgeLabel"><g transform="translate(0, 0)" class="label"><foreignObject height="0" width="0"><div style="display: inline-block; white-space: nowrap;" xmlns="http://www.w3.org/1999/xhtml"><span class="edgeLabel"></span></div></foreignObject></g></g><g class="edgeLabel"><g transform="translate(0, 0)" class="label"><foreignObject height="0" width="0"><div style="display: inline-block; white-space: nowrap;" xmlns="http://www.w3.org/1999/xhtml"><span class="edgeLabel"></span></div></foreignObject></g></g><g class="edgeLabel"><g transform="translate(0, 0)" class="label"><foreignObject height="0" width="0"><div style="display: inline-block; white-space: nowrap;" xmlns="http://www.w3.org/1999/xhtml"><span class="edgeLabel"></span></div></foreignObject></g></g><g class="edgeLabel"><g transform="translate(0, 0)" class="label"><foreignObject height="0" width="0"><div style="display: inline-block; white-space: nowrap;" xmlns="http://www.w3.org/1999/xhtml"><span class="edgeLabel"></span></div></foreignObject></g></g><g class="edgeLabel"><g transform="translate(0, 0)" class="label"><foreignObject height="0" width="0"><div style="display: inline-block; white-space: nowrap;" xmlns="http://www.w3.org/1999/xhtml"><span class="edgeLabel"></span></div></foreignObject></g></g><g class="edgeLabel"><g transform="translate(0, 0)" class="label"><foreignObject height="0" width="0"><div style="display: inline-block; white-space: nowrap;" xmlns="http://www.w3.org/1999/xhtml"><span class="edgeLabel"></span></div></foreignObject></g></g><g class="edgeLabel"><g transform="translate(0, 0)" class="label"><foreignObject height="0" width="0"><div style="display: inline-block; white-space: nowrap;" xmlns="http://www.w3.org/1999/xhtml"><span class="edgeLabel"></span></div></foreignObject></g></g><g class="edgeLabel"><g transform="translate(0, 0)" class="label"><foreignObject height="0" width="0"><div style="display: inline-block; white-space: nowrap;" xmlns="http://www.w3.org/1999/xhtml"><span class="edgeLabel"></span></div></foreignObject></g></g><g class="edgeLabel"><g transform="translate(0, 0)" class="label"><foreignObject height="0" width="0"><div style="display: inline-block; white-space: nowrap;" xmlns="http://www.w3.org/1999/xhtml"><span class="edgeLabel"></span></div></foreignObject></g></g><g class="edgeLabel"><g transform="translate(0, 0)" class="label"><foreignObject height="0" width="0"><div style="display: inline-block; white-space: nowrap;" xmlns="http://www.w3.org/1999/xhtml"><span class="edgeLabel"></span></div></foreignObject></g></g><g class="edgeLabel"><g transform="translate(0, 0)" class="label"><foreignObject height="0" width="0"><div style="display: inline-block; white-space: nowrap;" xmlns="http://www.w3.org/1999/xhtml"><span class="edgeLabel"></span></div></foreignObject></g></g><g class="edgeLabel"><g transform="translate(0, 0)" class="label"><foreignObject height="0" width="0"><div style="display: inline-block; white-space: nowrap;" xmlns="http://www.w3.org/1999/xhtml"><span class="edgeLabel"></span></div></foreignObject></g></g><g class="edgeLabel"><g transform="translate(0, 0)" class="label"><foreignObject height="0" width="0"><div style="display: inline-block; white-space: nowrap;" xmlns="http://www.w3.org/1999/xhtml"><span class="edgeLabel"></span></div></foreignObject></g></g><g class="edgeLabel"><g transform="translate(0, 0)" class="label"><foreignObject height="0" width="0"><div style="display: inline-block; white-space: nowrap;" xmlns="http://www.w3.org/1999/xhtml"><span class="edgeLabel"></span></div></foreignObject></g></g><g class="edgeLabel"><g transform="translate(0, 0)" class="label"><foreignObject height="0" width="0"><div style="display: inline-block; white-space: nowrap;" xmlns="http://www.w3.org/1999/xhtml"><span class="edgeLabel"></span></div></foreignObject></g></g><g class="edgeLabel"><g transform="translate(0, 0)" class="label"><foreignObject height="0" width="0"><div style="display: inline-block; white-space: nowrap;" xmlns="http://www.w3.org/1999/xhtml"><span class="edgeLabel"></span></div></foreignObject></g></g><g class="edgeLabel"><g transform="translate(0, 0)" class="label"><foreignObject height="0" width="0"><div style="display: inline-block; white-space: nowrap;" xmlns="http://www.w3.org/1999/xhtml"><span class="edgeLabel"></span></div></foreignObject></g></g><g class="edgeLabel"><g transform="translate(0, 0)" class="label"><foreignObject height="0" width="0"><div style="display: inline-block; white-space: nowrap;" xmlns="http://www.w3.org/1999/xhtml"><span class="edgeLabel"></span></div></foreignObject></g></g><g class="edgeLabel"><g transform="translate(0, 0)" class="label"><foreignObject height="0" width="0"><div style="display: inline-block; white-space: nowrap;" xmlns="http://www.w3.org/1999/xhtml"><span class="edgeLabel"></span></div></foreignObject></g></g><g transform="translate(716.40234375, 715.5007381439209)" class="edgeLabel"><g transform="translate(-77.13671875, -9.25)" class="label"><foreignObject height="18.5" width="154.2734375"><div style="display: inline-block; white-space: nowrap;" xmlns="http://www.w3.org/1999/xhtml"><span class="edgeLabel">validate and promote</span></div></foreignObject></g></g><g transform="translate(1117.0234375, 595.0993709564209)" class="edgeLabel"><g transform="translate(-69.9921875, -9.25)" class="label"><foreignObject height="18.5" width="139.984375"><div style="display: inline-block; white-space: nowrap;" xmlns="http://www.w3.org/1999/xhtml"><span class="edgeLabel">evaluation datasets</span></div></foreignObject></g></g><g class="edgeLabel"><g transform="translate(0, 0)" class="label"><foreignObject height="0" width="0"><div style="display: inline-block; white-space: nowrap;" xmlns="http://www.w3.org/1999/xhtml"><span class="edgeLabel"></span></div></foreignObject></g></g></g><g class="nodes"><g transform="translate(147.83984375, 739.1778945922852)" data-id="Store" data-node="true" id="flowchart-Store-15" class="node default default flowchart-label"><path transform="translate(-122.83984375,-41.604311126098594)" d="M 0,16.569540750732394 a 122.83984375,16.569540750732394 0,0,0 245.6796875 0 a 122.83984375,16.569540750732394 0,0,0 -245.6796875 0 l 0,50.06954075073239 a 122.83984375,16.569540750732394 0,0,0 245.6796875 0 l 0,-50.06954075073239" style=""/><g transform="translate(-115.33984375, -9.25)" style="" class="label"><rect/><foreignObject height="18.5" width="230.6796875"><div style="display: inline-block; white-space: nowrap;" xmlns="http://www.w3.org/1999/xhtml"><span class="nodeLabel">Object Storage / Admin Uploads</span></div></foreignObject></g></g><g transform="translate(479.97265625, 739.1778945922852)" data-id="Ingestion" data-node="true" id="flowchart-Ingestion-16" class="node default default flowchart-label"><rect height="33.5" width="218.5859375" y="-16.75" x="-109.29296875" ry="0" rx="0" style="" class="basic label-container"/><g transform="translate(-101.79296875, -9.25)" style="" class="label"><rect/><foreignObject height="18.5" width="203.5859375"><div style="display: inline-block; white-space: nowrap;" xmlns="http://www.w3.org/1999/xhtml"><span class="nodeLabel">Document Ingestion Pipeline</span></div></foreignObject></g></g><g transform="translate(932.78515625, 753.8028945922852)" data-id="Embed" data-node="true" id="flowchart-Embed-17" class="node default default flowchart-label"><rect height="33.5" width="149.1953125" y="-16.75" x="-74.59765625" ry="0" rx="0" style="" class="basic label-container"/><g transform="translate(-67.09765625, -9.25)" style="" class="label"><rect/><foreignObject height="18.5" width="134.1953125"><div style="display: inline-block; white-space: nowrap;" xmlns="http://www.w3.org/1999/xhtml"><span class="nodeLabel">Embedding Worker</span></div></foreignObject></g></g><g transform="translate(1386.4765625, 741.3757381439209)" data-id="Eval" data-node="true" id="flowchart-Eval-18" class="node default default flowchart-label"><rect height="33.5" width="153.5546875" y="-16.75" x="-76.77734375" ry="0" rx="0" style="" class="basic label-container"/><g transform="translate(-69.27734375, -9.25)" style="" class="label"><rect/><foreignObject height="18.5" width="138.5546875"><div style="display: inline-block; white-space: nowrap;" xmlns="http://www.w3.org/1999/xhtml"><span class="nodeLabel">Offline Eval Runner</span></div></foreignObject></g></g><g transform="translate(1386.4765625, 51.75)" data-id="Escalation" data-node="true" id="flowchart-Escalation-12" class="node default default flowchart-label"><rect height="33.5" width="198.703125" y="-16.75" x="-99.3515625" ry="0" rx="0" style="" class="basic label-container"/><g transform="translate(-91.8515625, -9.25)" style="" class="label"><rect/><foreignObject height="18.5" width="183.703125"><div style="display: inline-block; white-space: nowrap;" xmlns="http://www.w3.org/1999/xhtml"><span class="nodeLabel">Human Escalation Service</span></div></foreignObject></g></g><g transform="translate(1748.38671875, 51.75)" data-id="Agents" data-node="true" id="flowchart-Agents-13" class="node default default flowchart-label"><rect height="33.5" width="166.296875" y="-16.75" x="-83.1484375" ry="0" rx="0" style="" class="basic label-container"/><g transform="translate(-75.6484375, -9.25)" style="" class="label"><rect/><foreignObject height="18.5" width="151.296875"><div style="display: inline-block; white-space: nowrap;" xmlns="http://www.w3.org/1999/xhtml"><span class="nodeLabel">Agent Desktop / CRM</span></div></foreignObject></g></g><g transform="translate(1748.38671875, 156.52578926086426)" data-id="Obs" data-node="true" id="flowchart-Obs-14" class="node default default flowchart-label"><rect height="33.5" width="274.8984375" y="-16.75" x="-137.44921875" ry="0" rx="0" style="" class="basic label-container"/><g transform="translate(-129.94921875, -9.25)" style="" class="label"><rect/><foreignObject height="18.5" width="259.8984375"><div style="display: inline-block; white-space: nowrap;" xmlns="http://www.w3.org/1999/xhtml"><span class="nodeLabel">Langfuse + OpenTelemetry + Metrics</span></div></foreignObject></g></g><g transform="translate(932.78515625, 309.8484172821045)" data-id="Memory" data-node="true" id="flowchart-Memory-7" class="node default default flowchart-label"><path transform="translate(-84.65234375,-38.322628812614475)" d="M 0,14.381752541742983 a 84.65234375,14.381752541742983 0,0,0 169.3046875 0 a 84.65234375,14.381752541742983 0,0,0 -169.3046875 0 l 0,47.88175254174298 a 84.65234375,14.381752541742983 0,0,0 169.3046875 0 l 0,-47.88175254174298" style=""/><g transform="translate(-77.15234375, -9.25)" style="" class="label"><rect/><foreignObject height="18.5" width="154.3046875"><div style="display: inline-block; white-space: nowrap;" xmlns="http://www.w3.org/1999/xhtml"><span class="nodeLabel">Redis Session Memory</span></div></foreignObject></g></g><g transform="translate(932.78515625, 479.4267387390137)" data-id="Alias" data-node="true" id="flowchart-Alias-8" class="node default default flowchart-label"><rect height="33.5" width="178.4921875" y="-16.75" x="-89.24609375" ry="0" rx="0" style="" class="basic label-container"/><g transform="translate(-81.74609375, -9.25)" style="" class="label"><rect/><foreignObject height="18.5" width="163.4921875"><div style="display: inline-block; white-space: nowrap;" xmlns="http://www.w3.org/1999/xhtml"><span class="nodeLabel">Versioned Serving Alias</span></div></foreignObject></g></g><g transform="translate(1386.4765625, 479.4267387390137)" data-id="Qdrant" data-node="true" id="flowchart-Qdrant-9" class="node default default flowchart-label"><path transform="translate(-32.21875,-29.505691191026063)" d="M 0,8.503794127350709 a 32.21875,8.503794127350709 0,0,0 64.4375 0 a 32.21875,8.503794127350709 0,0,0 -64.4375 0 l 0,42.00379412735071 a 32.21875,8.503794127350709 0,0,0 64.4375 0 l 0,-42.00379412735071" style=""/><g transform="translate(-24.71875, -9.25)" style="" class="label"><rect/><foreignObject height="18.5" width="49.4375"><div style="display: inline-block; white-space: nowrap;" xmlns="http://www.w3.org/1999/xhtml"><span class="nodeLabel">Qdrant</span></div></foreignObject></g></g><g transform="translate(1386.4765625, 383.1710453033447)" data-id="LLM" data-node="true" id="flowchart-LLM-10" class="node default default flowchart-label"><rect height="33.5" width="234.2578125" y="-16.75" x="-117.12890625" ry="0" rx="0" style="" class="basic label-container"/><g transform="translate(-109.62890625, -9.25)" style="" class="label"><rect/><foreignObject height="18.5" width="219.2578125"><div style="display: inline-block; white-space: nowrap;" xmlns="http://www.w3.org/1999/xhtml"><span class="nodeLabel">LLM Gateway / Model Provider</span></div></foreignObject></g></g><g transform="translate(932.78515625, 576.8751602172852)" data-id="SQL" data-node="true" id="flowchart-SQL-11" class="node default default flowchart-label"><path transform="translate(-37.015625,-30.698422044276967)" d="M 0,9.298948029517978 a 37.015625,9.298948029517978 0,0,0 74.03125 0 a 37.015625,9.298948029517978 0,0,0 -74.03125 0 l 0,42.79894802951798 a 37.015625,9.298948029517978 0,0,0 74.03125 0 l 0,-42.79894802951798" style=""/><g transform="translate(-29.515625, -9.25)" style="" class="label"><rect/><foreignObject height="18.5" width="59.03125"><div style="display: inline-block; white-space: nowrap;" xmlns="http://www.w3.org/1999/xhtml"><span class="nodeLabel">Postgres</span></div></foreignObject></g></g><g transform="translate(479.97265625, 447.1738920211792)" data-id="API" data-node="true" id="flowchart-API-6" class="node default default flowchart-label"><rect height="33.5" width="208.4140625" y="-16.75" x="-104.20703125" ry="0" rx="0" style="" class="basic label-container"/><g transform="translate(-96.70703125, -9.25)" style="" class="label"><rect/><foreignObject height="18.5" width="193.4140625"><div style="display: inline-block; white-space: nowrap;" xmlns="http://www.w3.org/1999/xhtml"><span class="nodeLabel">Channel API / Orchestrator</span></div></foreignObject></g></g><g transform="translate(1386.4765625, 1009.1050510406494)" data-id="SBC" data-node="true" id="flowchart-SBC-2" class="node default default flowchart-label"><rect height="33.5" width="298.921875" y="-16.75" x="-149.4609375" ry="0" rx="0" style="" class="basic label-container"/><g transform="translate(-141.9609375, -9.25)" style="" class="label"><rect/><foreignObject height="18.5" width="283.921875"><div style="display: inline-block; white-space: nowrap;" xmlns="http://www.w3.org/1999/xhtml"><span class="nodeLabel">Session Border Controller / SIP Provider</span></div></foreignObject></g></g><g transform="translate(1748.38671875, 1009.1050510406494)" data-id="Turn" data-node="true" id="flowchart-Turn-3" class="node default default flowchart-label"><rect height="33.5" width="255.6328125" y="-16.75" x="-127.81640625" ry="0" rx="0" style="" class="basic label-container"/><g transform="translate(-120.31640625, -9.25)" style="" class="label"><rect/><foreignObject height="18.5" width="240.6328125"><div style="display: inline-block; white-space: nowrap;" xmlns="http://www.w3.org/1999/xhtml"><span class="nodeLabel">Turn Detection / Barge-In Control</span></div></foreignObject></g></g><g transform="translate(2019.88671875, 1040.8550510406494)" data-id="STT" data-node="true" id="flowchart-STT-4" class="node default default flowchart-label"><rect height="33.5" width="118.1015625" y="-16.75" x="-59.05078125" ry="0" rx="0" style="" class="basic label-container"/><g transform="translate(-51.55078125, -9.25)" style="" class="label"><rect/><foreignObject height="18.5" width="103.1015625"><div style="display: inline-block; white-space: nowrap;" xmlns="http://www.w3.org/1999/xhtml"><span class="nodeLabel">Streaming STT</span></div></foreignObject></g></g><g transform="translate(932.78515625, 1024.9800510406494)" data-id="TTS" data-node="true" id="flowchart-TTS-5" class="node default default flowchart-label"><rect height="33.5" width="120.6796875" y="-16.75" x="-60.33984375" ry="0" rx="0" style="" class="basic label-container"/><g transform="translate(-52.83984375, -9.25)" style="" class="label"><rect/><foreignObject height="18.5" width="105.6796875"><div style="display: inline-block; white-space: nowrap;" xmlns="http://www.w3.org/1999/xhtml"><span class="nodeLabel">Text to Speech</span></div></foreignObject></g></g><g transform="translate(147.83984375, 889.7300510406494)" data-id="Chat" data-node="true" id="flowchart-Chat-0" class="node default default flowchart-label"><rect height="33.5" width="148.3125" y="-16.75" x="-74.15625" ry="0" rx="0" style="" class="basic label-container"/><g transform="translate(-66.65625, -9.25)" style="" class="label"><rect/><foreignObject height="18.5" width="133.3125"><div style="display: inline-block; white-space: nowrap;" xmlns="http://www.w3.org/1999/xhtml"><span class="nodeLabel">Web / Mobile Chat</span></div></foreignObject></g></g><g transform="translate(147.83984375, 973.2300510406494)" data-id="Voice" data-node="true" id="flowchart-Voice-1" class="node default default flowchart-label"><rect height="33.5" width="125.8671875" y="-16.75" x="-62.93359375" ry="0" rx="0" style="" class="basic label-container"/><g transform="translate(-55.43359375, -9.25)" style="" class="label"><rect/><foreignObject height="18.5" width="110.8671875"><div style="display: inline-block; white-space: nowrap;" xmlns="http://www.w3.org/1999/xhtml"><span class="nodeLabel">SIP / Telephony</span></div></foreignObject></g></g></g></g></g></svg>