<svg aria-roledescription="flowchart-v2" role="graphics-document document" viewBox="-8 -8 2668.662109375 893.865234375" style="max-width: 2668.66px; background-color: white;" xmlns:xlink="http://www.w3.org/1999/xlink" xmlns="http://www.w3.org/2000/svg" width="100%" id="my-svg"><style>#my-svg{font-family:"trebuchet ms",verdana,arial,sans-serif;font-size:16px;fill:#333;}#my-svg .error-icon{fill:#552222;}#my-svg .error-text{fill:#552222;stroke:#552222;}#my-svg .edge-thickness-normal{stroke-width:2px;}#my-svg .edge-thickness-thick{stroke-width:3.5px;}#my-svg .edge-pattern-solid{stroke-dasharray:0;}#my-svg .edge-pattern-dashed{stroke-dasharray:3;}#my-svg .edge-pattern-dotted{stroke-dasharray:2;}#my-svg .marker{fill:#333333;stroke:#333333;}#my-svg .marker.cross{stroke:#333333;}#my-svg svg{font-family:"trebuchet ms",verdana,arial,sans-serif;font-size:16px;}#my-svg .label{font-family:"trebuchet ms",verdana,arial,sans-serif;color:#333;}#my-svg .cluster-label text{fill:#333;}#my-svg .cluster-label span,#my-svg p{color:#333;}#my-svg .label text,#my-svg span,#my-svg p{fill:#333;color:#333;}#my-svg .node rect,#my-svg .node circle,#my-svg .node ellipse,#my-svg .node polygon,#my-svg .node path{fill:#ECECFF;stroke:#9370DB;stroke-width:1px;}#my-svg .flowchart-label text{text-anchor:middle;}#my-svg .node .katex path{fill:#000;stroke:#000;stroke-width:1px;}#my-svg .node .label{text-align:center;}#my-svg .node.clickable{cursor:pointer;}#my-svg .arrowheadPath{fill:#333333;}#my-svg .edgePath .path{stroke:#333333;stroke-width:2.0px;}#my-svg .flowchart-link{stroke:#333333;fill:none;}#my-svg .edgeLabel{background-color:#e8e8e8;text-align:center;}#my-svg .edgeLabel rect{opacity:0.5;background-color:#e8e8e8;fill:#e8e8e8;}#my-svg .labelBkg{background-color:rgba(232, 232, 232, 0.5);}#my-svg .cluster rect{fill:#ffffde;stroke:#aaaa33;stroke-width:1px;}#my-svg .cluster text{fill:#333;}#my-svg .cluster span,#my-svg p{color:#333;}#my-svg div.mermaidTooltip{position:absolute;text-align:center;max-width:200px;padding:2px;font-family:"trebuchet ms",verdana,arial,sans-serif;font-size:12px;background:hsl(80, 100%, 96.2745098039%);border:1px solid #aaaa33;border-radius:2px;pointer-events:none;z-index:100;}#my-svg .flowchartTitleText{text-anchor:middle;font-size:18px;fill:#333;}#my-svg :root{--mermaid-font-family:"trebuchet ms",verdana,arial,sans-serif;}</style><g><marker orient="auto" markerHeight="12" markerWidth="12" markerUnits="userSpaceOnUse" refY="5" refX="6" viewBox="0 0 10 10" class="marker flowchart" id="my-svg_flowchart-pointEnd"><path style="stroke-width: 1; stroke-dasharray: 1, 0;" class="arrowMarkerPath" d="M 0 0 L 10 5 L 0 10 z"/></marker><marker orient="auto" markerHeight="12" markerWidth="12" markerUnits="userSpaceOnUse" refY="5" refX="4.5" viewBox="0 0 10 10" class="marker flowchart" id="my-svg_flowchart-pointStart"><path style="stroke-width: 1; stroke-dasharray: 1, 0;" class="arrowMarkerPath" d="M 0 5 L 10 10 L 10 0 z"/></marker><marker orient="auto" markerHeight="11" markerWidth="11" markerUnits="userSpaceOnUse" refY="5" refX="11" viewBox="0 0 10 10" class="marker flowchart" id="my-svg_flowchart-circleEnd"><circle style="stroke-width: 1; stroke-dasharray: 1, 0;" class="arrowMarkerPath" r="5" cy="5" cx="5"/></marker><marker orient="auto" markerHeight="11" markerWidth="11" markerUnits="userSpaceOnUse" refY="5" refX="-1" viewBox="0 0 10 10" class="marker flowchart" id="my-svg_flowchart-circleStart"><circle style="stroke-width: 1; stroke-dasharray: 1, 0;" class="arrowMarkerPath" r="5" cy="5" cx="5"/></marker><marker orient="auto" markerHeight="11" markerWidth="11" markerUnits="userSpaceOnUse" refY="5.2" refX="12" viewBox="0 0 11 11" class="marker cross flowchart" id="my-svg_flowchart-crossEnd"><path style="stroke-width: 2; stroke-dasharray: 1, 0;" class="arrowMarkerPath" d="M 1,1 l 9,9 M 10,1 l -9,9"/></marker><marker orient="auto" markerHeight="11" markerWidth="11" markerUnits="userSpaceOnUse" refY="5.2" refX="-1" viewBox="0 0 11 11" class="marker cross flowchart" id="my-svg_flowchart-crossStart"><path style="stroke-width: 2; stroke-dasharray: 1, 0;" class="arrowMarkerPath" d="M 1,1 l 9,9 M 10,1 l -9,9"/></marker><g class="root"><g class="clusters"><g id="subGraph5" class="cluster default flowchart-label"><rect height="394.15664291381836" width="344.8984375" y="375.20862579345703" x="1096.3828125" ry="0" rx="0" style=""/><g transform="translate(1221.41015625, 375.20862579345703)" class="cluster-label"><foreignObject height="18.5" width="94.84375"><div style="display: inline-block; white-space: nowrap;" xmlns="http://www.w3.org/1999/xhtml"><span class="nodeLabel">Data and Ops</span></div></foreignObject></g></g><g id="Intelligence" class="cluster default flowchart-label"><rect height="109.01138687133789" width="507.8125" y="551.8538818359375" x="568.5703125" ry="0" rx="0" style=""/><g transform="translate(780.26953125, 551.8538818359375)" class="cluster-label"><foreignObject height="18.5" width="84.4140625"><div style="display: inline-block; white-space: nowrap;" xmlns="http://www.w3.org/1999/xhtml"><span class="nodeLabel">Intelligence</span></div></foreignObject></g></g><g id="subGraph3" class="cluster default flowchart-label"><rect height="527.3652687072754" width="548.5703125" y="133.5" x="0" ry="0" rx="0" style=""/><g transform="translate(219.421875, 133.5)" class="cluster-label"><foreignObject height="18.5" width="109.7265625"><div style="display: inline-block; white-space: nowrap;" xmlns="http://www.w3.org/1999/xhtml"><span class="nodeLabel">Knowledge Tier</span></div></foreignObject></g></g><g id="subGraph2" class="cluster default flowchart-label"><rect height="368.3538818359375" width="677.388671875" y="133.5" x="1461.28125" ry="0" rx="0" style=""/><g transform="translate(1770.0107421875, 133.5)" class="cluster-label"><foreignObject height="18.5" width="59.9296875"><div style="display: inline-block; white-space: nowrap;" xmlns="http://www.w3.org/1999/xhtml"><span class="nodeLabel">App Tier</span></div></foreignObject></g></g><g id="subGraph1" class="cluster default flowchart-label"><rect height="502.65664291381836" width="493.9921875" y="375.20862579345703" x="2158.669921875" ry="0" rx="0" style=""/><g transform="translate(2352.923828125, 375.20862579345703)" class="cluster-label"><foreignObject height="18.5" width="105.484375"><div style="display: inline-block; white-space: nowrap;" xmlns="http://www.w3.org/1999/xhtml"><span class="nodeLabel">Voice Gateway</span></div></foreignObject></g></g><g id="Channels" class="cluster default flowchart-label"><rect height="83.5" width="825.212890625" y="0" x="1785.384765625" ry="0" rx="0" style=""/><g transform="translate(2165.9287109375, 0)" class="cluster-label"><foreignObject height="18.5" width="64.125"><div style="display: inline-block; white-space: nowrap;" xmlns="http://www.w3.org/1999/xhtml"><span class="nodeLabel">Channels</span></div></foreignObject></g></g></g><g class="edgePaths"><path marker-end="url(#my-svg_flowchart-pointEnd)" style="fill:none;" class="edge-thickness-normal edge-pattern-solid flowchart-link LS-Web LE-LB" id="L-Web-LB-0" d="M1894.541,58.5L1894.541,62.667C1894.541,66.833,1894.541,75.167,1894.541,83.5C1894.541,91.833,1894.541,100.167,1894.541,108.5C1894.541,116.833,1894.541,125.167,1894.541,136.759C1894.541,148.351,1894.541,163.203,1894.541,170.629L1894.541,178.054"/><path marker-end="url(#my-svg_flowchart-pointEnd)" style="fill:none;" class="edge-thickness-normal edge-pattern-solid flowchart-link LS-LB LE-API" id="L-LB-API-0" d="M1894.541,216.854L1894.541,225.163C1894.541,233.472,1894.541,250.091,1894.541,261.683C1894.541,273.275,1894.541,279.842,1894.541,283.125L1894.541,286.409"/><path marker-end="url(#my-svg_flowchart-pointEnd)" style="fill:none;" class="edge-thickness-normal edge-pattern-solid flowchart-link LS-SIP LE-SBC" id="L-SIP-SBC-0" d="M2512.664,58.5L2512.664,62.667C2512.664,66.833,2512.664,75.167,2512.664,83.5C2512.664,91.833,2512.664,100.167,2512.664,108.5C2512.664,116.833,2512.664,125.167,2512.664,140.434C2512.664,155.701,2512.664,177.903,2512.664,200.104C2512.664,222.306,2512.664,244.507,2512.664,262.566C2512.664,280.625,2512.664,294.542,2512.664,308.459C2512.664,322.375,2512.664,336.292,2512.664,347.417C2512.664,358.542,2512.664,366.875,2512.664,381.596C2512.664,396.316,2512.664,417.424,2512.664,438.531C2512.664,459.639,2512.664,480.746,2512.664,495.467C2512.664,510.187,2512.664,518.521,2512.664,526.854C2512.664,535.187,2512.664,543.521,2507.742,553.315C2502.82,563.109,2492.976,574.365,2488.055,579.992L2483.133,585.62"/><path marker-end="url(#my-svg_flowchart-pointEnd)" style="fill:none;" class="edge-thickness-normal edge-pattern-solid flowchart-link LS-SBC LE-Turn" id="L-SBC-Turn-0" d="M2464.994,623.11L2464.994,629.402C2464.994,635.695,2464.994,648.28,2464.994,658.739C2464.994,669.199,2464.994,677.532,2459.341,685.383C2453.688,693.234,2442.383,700.603,2436.73,704.287L2431.077,707.971"/><path marker-end="url(#my-svg_flowchart-pointEnd)" style="fill:none;" class="edge-thickness-normal edge-pattern-solid flowchart-link LS-Turn LE-STT" id="L-Turn-STT-0" d="M2400.938,744.365L2400.938,748.532C2400.938,752.699,2400.938,761.032,2400.938,769.365C2400.938,777.699,2400.938,786.032,2393.599,793.962C2386.26,801.892,2371.583,809.42,2364.245,813.183L2356.906,816.947"/><path marker-end="url(#my-svg_flowchart-pointEnd)" style="fill:none;" class="edge-thickness-normal edge-pattern-solid flowchart-link LS-STT LE-API" id="L-STT-API-0" d="M2277.871,819.365L2267.509,815.199C2257.146,811.032,2236.421,802.699,2226.058,794.365C2215.695,786.032,2215.695,777.699,2215.695,766.574C2215.695,755.449,2215.695,741.532,2215.695,727.615C2215.695,713.699,2215.695,699.782,2215.695,688.657C2215.695,677.532,2215.695,669.199,2215.695,655.948C2215.695,642.697,2215.695,624.528,2215.695,606.36C2215.695,588.191,2215.695,570.022,2215.695,556.771C2215.695,543.521,2215.695,535.187,2182.924,526.854C2150.152,518.521,2084.609,510.187,2051.838,495.467C2019.066,480.746,2019.066,459.639,2019.066,438.531C2019.066,417.424,2019.066,396.316,2019.066,381.596C2019.066,366.875,2019.066,358.542,2007.476,350.489C1995.886,342.437,1972.706,334.665,1961.116,330.779L1949.525,326.893"/><path marker-end="url(#my-svg_flowchart-pointEnd)" style="fill:none;" class="edge-thickness-normal edge-pattern-solid flowchart-link LS-API LE-Memory" id="L-API-Memory-0" d="M1790.334,323.787L1760.397,328.191C1730.46,332.594,1670.585,341.401,1640.648,349.972C1610.711,358.542,1610.711,366.875,1610.711,374.325C1610.711,381.775,1610.711,388.342,1610.711,391.625L1610.711,394.909"/><path marker-end="url(#my-svg_flowchart-pointEnd)" style="fill:none;" class="edge-thickness-normal edge-pattern-solid flowchart-link LS-API LE-Alias" id="L-API-Alias-0" d="M1790.334,320.761L1748.759,325.669C1707.184,330.577,1624.035,340.393,1582.46,349.467C1540.885,358.542,1540.885,366.875,1361.198,380.66C1181.512,394.445,822.138,413.681,642.452,423.3L462.765,432.918"/><path marker-end="url(#my-svg_flowchart-pointEnd)" style="fill:none;" class="edge-thickness-normal edge-pattern-solid flowchart-link LS-Alias LE-Qdrant" id="L-Alias-Qdrant-0" d="M357.895,455.281L357.895,463.043C357.895,470.805,357.895,486.33,357.895,498.258C357.895,510.187,357.895,518.521,357.895,526.854C357.895,535.187,357.895,543.521,340.793,554.356C323.691,565.192,289.487,578.531,272.385,585.2L255.284,591.869"/><path marker-end="url(#my-svg_flowchart-pointEnd)" style="fill:none;" class="edge-thickness-normal edge-pattern-solid flowchart-link LS-API LE-LLM" id="L-API-LLM-0" d="M1828.673,325.209L1812.288,329.375C1795.903,333.542,1763.133,341.875,1746.748,350.209C1730.363,358.542,1730.363,366.875,1730.363,381.596C1730.363,396.316,1730.363,417.424,1730.363,438.531C1730.363,459.639,1730.363,480.746,1596.012,495.467C1461.66,510.187,1192.957,518.521,1058.605,526.854C924.254,535.187,924.254,543.521,924.254,553.096C924.254,562.672,924.254,573.491,924.254,578.9L924.254,584.31"/><path marker-end="url(#my-svg_flowchart-pointEnd)" style="fill:none;" class="edge-thickness-normal edge-pattern-solid flowchart-link LS-API LE-Escalation" id="L-API-Escalation-0" d="M1882.575,325.209L1879.598,329.375C1876.621,333.542,1870.668,341.875,1867.692,350.209C1864.715,358.542,1864.715,366.875,1864.715,377.921C1864.715,388.966,1864.715,402.724,1864.715,409.602L1864.715,416.481"/><path marker-end="url(#my-svg_flowchart-pointEnd)" style="fill:none;" class="edge-thickness-normal edge-pattern-solid flowchart-link LS-Escalation LE-Agents" id="L-Escalation-Agents-0" d="M1864.715,455.281L1864.715,463.043C1864.715,470.805,1864.715,486.33,1765.788,498.258C1666.862,510.187,1469.009,518.521,1370.083,526.854C1271.156,535.187,1271.156,543.521,1271.156,553.096C1271.156,562.672,1271.156,573.491,1271.156,578.9L1271.156,584.31"/><path marker-end="url(#my-svg_flowchart-pointEnd)" style="fill:none;" class="edge-thickness-normal edge-pattern-solid flowchart-link LS-API LE-SQL" id="L-API-SQL-0" d="M1790.334,321.498L1752.092,326.283C1713.851,331.068,1637.368,340.638,1599.126,349.59C1560.885,358.542,1560.885,366.875,1516.298,380.158C1471.711,393.44,1382.538,411.671,1337.951,420.786L1293.364,429.902"/><path marker-end="url(#my-svg_flowchart-pointEnd)" style="fill:none;" class="edge-thickness-normal edge-pattern-solid flowchart-link LS-API LE-Obs" id="L-API-Obs-0" d="M1936.476,325.209L1946.908,329.375C1957.34,333.542,1978.203,341.875,1988.635,350.209C1999.066,358.542,1999.066,366.875,1999.066,381.596C1999.066,396.316,1999.066,417.424,1999.066,438.531C1999.066,459.639,1999.066,480.746,1897.439,495.467C1795.813,510.187,1592.559,518.521,1490.932,526.854C1389.305,535.187,1389.305,543.521,1389.305,556.771C1389.305,570.022,1389.305,588.191,1389.305,606.36C1389.305,624.528,1389.305,642.697,1389.305,655.948C1389.305,669.199,1389.305,677.532,1378.116,685.576C1366.928,693.62,1344.55,701.375,1333.362,705.252L1322.173,709.13"/><path marker-end="url(#my-svg_flowchart-pointEnd)" style="fill:none;" class="edge-thickness-normal edge-pattern-solid flowchart-link LS-LLM LE-Obs" id="L-LLM-Obs-0" d="M924.254,623.11L924.254,629.402C924.254,635.695,924.254,648.28,992.721,658.739C1061.188,669.199,1198.122,677.532,1260.728,685.394C1323.333,693.256,1311.609,700.648,1305.747,704.343L1299.885,708.039"/><path marker-end="url(#my-svg_flowchart-pointEnd)" style="fill:none;" class="edge-thickness-normal edge-pattern-solid flowchart-link LS-Qdrant LE-Obs" id="L-Qdrant-Obs-0" d="M218.127,635.865L218.127,640.032C218.127,644.199,218.127,652.532,386.82,660.865C555.514,669.199,892.9,677.532,1064.841,685.216C1236.782,692.901,1243.277,699.936,1246.525,703.453L1249.773,706.971"/><path marker-end="url(#my-svg_flowchart-pointEnd)" style="fill:none;" class="edge-thickness-normal edge-pattern-solid flowchart-link LS-TTS LE-SBC" id="L-TTS-SBC-0" d="M2398.83,455.281L2398.83,463.043C2398.83,470.805,2398.83,486.33,2398.83,498.258C2398.83,510.187,2398.83,518.521,2398.83,526.854C2398.83,535.187,2398.83,543.521,2405.787,553.418C2412.744,563.316,2426.657,574.778,2433.614,580.509L2440.571,586.24"/><path marker-end="url(#my-svg_flowchart-pointEnd)" style="fill:none;" class="edge-thickness-normal edge-pattern-solid flowchart-link LS-API LE-TTS" id="L-API-TTS-0" d="M1960.548,325.209L1976.968,329.375C1993.388,333.542,2026.227,341.875,2042.647,350.209C2059.066,358.542,2059.066,366.875,2104.769,379.56C2150.471,392.244,2241.875,409.279,2287.578,417.797L2333.28,426.315"/><path marker-end="url(#my-svg_flowchart-pointEnd)" style="fill:none;" class="edge-thickness-normal edge-pattern-solid flowchart-link LS-API LE-Turn" id="L-API-Turn-0" d="M1952.524,325.209L1966.948,329.375C1981.372,333.542,2010.219,341.875,2024.643,350.209C2039.066,358.542,2039.066,366.875,2039.066,381.596C2039.066,396.316,2039.066,417.424,2039.066,438.531C2039.066,459.639,2039.066,480.746,2078.776,495.467C2118.486,510.187,2197.906,518.521,2237.616,526.854C2277.326,535.187,2277.326,543.521,2277.326,556.771C2277.326,570.022,2277.326,588.191,2277.326,606.36C2277.326,624.528,2277.326,642.697,2277.326,655.948C2277.326,669.199,2277.326,677.532,2288.826,685.583C2300.325,693.633,2323.324,701.401,2334.824,705.285L2346.324,709.169"/><path marker-end="url(#my-svg_flowchart-pointEnd)" style="fill:none;" class="edge-thickness-normal edge-pattern-solid flowchart-link LS-Store LE-Ingestion" id="L-Store-Ingestion-0" d="M245.207,240.553L240.694,244.912C236.18,249.272,227.154,257.99,222.64,265.633C218.127,273.275,218.127,279.842,218.127,283.125L218.127,286.409"/><path marker-end="url(#my-svg_flowchart-pointEnd)" style="fill:none;" class="edge-thickness-normal edge-pattern-solid flowchart-link LS-Ingestion LE-Embed" id="L-Ingestion-Embed-0" d="M184.263,325.209L175.839,329.375C167.415,333.542,150.567,341.875,142.143,350.209C133.719,358.542,133.719,366.875,133.719,377.921C133.719,388.966,133.719,402.724,133.719,409.602L133.719,416.481"/><path marker-end="url(#my-svg_flowchart-pointEnd)" style="fill:none;" class="edge-thickness-normal edge-pattern-solid flowchart-link LS-Embed LE-Qdrant" id="L-Embed-Qdrant-0" d="M133.719,455.281L133.719,463.043C133.719,470.805,133.719,486.33,133.719,498.258C133.719,510.187,133.719,518.521,133.719,526.854C133.719,535.187,133.719,543.521,141.675,552.825C149.631,562.129,165.543,572.404,173.5,577.542L181.456,582.68"/><path marker-end="url(#my-svg_flowchart-pointEnd)" style="fill:none;" class="edge-thickness-normal edge-pattern-solid flowchart-link LS-Ingestion LE-Alias" id="L-Ingestion-Alias-0" d="M274.201,325.209L288.15,329.375C302.099,333.542,329.997,341.875,343.946,350.209C357.895,358.542,357.895,366.875,357.895,377.921C357.895,388.966,357.895,402.724,357.895,409.602L357.895,416.481"/><path marker-end="url(#my-svg_flowchart-pointEnd)" style="fill:none;" class="edge-thickness-normal edge-pattern-solid flowchart-link LS-Store LE-SQL" id="L-Store-SQL-0" d="M413.113,225.054L425.483,231.997C437.852,238.939,462.591,252.824,474.961,266.725C487.33,280.625,487.33,294.542,487.33,308.459C487.33,322.375,487.33,336.292,487.33,347.417C487.33,358.542,487.33,366.875,607.585,381.011C727.84,395.147,968.349,415.086,1088.604,425.055L1208.859,435.025"/><path marker-end="url(#my-svg_flowchart-pointEnd)" style="fill:none;" class="edge-thickness-normal edge-pattern-solid flowchart-link LS-SQL LE-Eval" id="L-SQL-Eval-0" d="M1251.156,469.23L1251.156,474.667C1251.156,480.104,1251.156,490.979,1251.156,500.583C1251.156,510.187,1251.156,518.521,1251.156,526.854C1251.156,535.187,1251.156,543.521,1169.697,555.466C1088.238,567.411,925.319,582.968,843.86,590.746L762.401,598.524"/><path marker-end="url(#my-svg_flowchart-pointEnd)" style="fill:none;" class="edge-thickness-normal edge-pattern-solid flowchart-link LS-Eval LE-Obs" id="L-Eval-Obs-0" d="M680.348,623.11L680.348,629.402C680.348,635.695,680.348,648.28,768.671,658.739C856.994,669.199,1033.641,677.532,1127.087,685.352C1220.534,693.173,1230.782,700.48,1235.905,704.134L1241.029,707.788"/></g><g class="edgeLabels"><g class="edgeLabel"><g transform="translate(0, 0)" class="label"><foreignObject height="0" width="0"><div style="display: inline-block; white-space: nowrap;" xmlns="http://www.w3.org/1999/xhtml"><span class="edgeLabel"></span></div></foreignObject></g></g><g class="edgeLabel"><g transform="translate(0, 0)" class="label"><foreignObject height="0" width="0"><div style="display: inline-block; white-space: nowrap;" xmlns="http://www.w3.org/1999/xhtml"><span class="edgeLabel"></span></div></foreignObject></g></g><g class="edgeLabel"><g transform="translate(0, 0)" class="label"><foreignObject height="0" width="0"><div style="display: inline-block; white-space: nowrap;" xmlns="http://www.w3.org/1999/xhtml"><span class="edgeLabel"></span></div></foreignObject></g></g><g class="edgeLabel"><g transform="translate(0, 0)" class="label"><foreignObject height="0" width="0"><div style="display: inline-block; white-space: nowrap;" xmlns="http://www.w3.org/1999/xhtml"><span class="edgeLabel"></span></div></foreignObject></g></g><g class="edgeLabel"><g transform="translate(0, 0)" class="label"><foreignObject height="0" width="0"><div style="display: inline-block; white-space: nowrap;" xmlns="http://www.w3.org/1999/xhtml"><span class="edgeLabel"></span></div></foreignObject></g></g><g class="edgeLabel"><g transform="translate(0, 0)" class="label"><foreignObject height="0" width="0"><div style="display: inline-block; white-space: nowrap;" xmlns="http://www.w3.org/1999/xhtml"><span class="edgeLabel"></span></div></foreignObject></g></g><g class="edgeLabel"><g transform="translate(0, 0)" class="label"><foreignObject height="0" width="0"><div style="display: inline-block; white-space: nowrap;" xmlns="http://www.w3.org/1999/xhtml"><span class="edgeLabel"></span></div></foreignObject></g></g><g class="edgeLabel"><g transform="translate(0, 0)" class="label"><foreignObject height="0" width="0"><div style="display: inline-block; white-space: nowrap;" xmlns="http://www.w3.org/1999/xhtml"><span class="edgeLabel"></span></div></foreignObject></g></g><g class="edgeLabel"><g transform="translate(0, 0)" class="label"><foreignObject height="0" width="0"><div style="display: inline-block; white-space: nowrap;" xmlns="http://www.w3.org/1999/xhtml"><span class="edgeLabel"></span></div></foreignObject></g></g><g class="edgeLabel"><g transform="translate(0, 0)" class="label"><foreignObject height="0" width="0"><div style="display: inline-block; white-space: nowrap;" xmlns="http://www.w3.org/1999/xhtml"><span class="edgeLabel"></span></div></foreignObject></g></g><g class="edgeLabel"><g transform="translate(0, 0)" class="label"><foreignObject height="0" width="0"><div style="display: inline-block; white-space: nowrap;" xmlns="http://www.w3.org/1999/xhtml"><span class="edgeLabel"></span></div></foreignObject></g></g><g class="edgeLabel"><g transform="translate(0, 0)" class="label"><foreignObject height="0" width="0"><div style="display: inline-block; white-space: nowrap;" xmlns="http://www.w3.org/1999/xhtml"><span class="edgeLabel"></span></div></foreignObject></g></g><g class="edgeLabel"><g transform="translate(0, 0)" class="label"><foreignObject height="0" width="0"><div style="display: inline-block; white-space: nowrap;" xmlns="http://www.w3.org/1999/xhtml"><span class="edgeLabel"></span></div></foreignObject></g></g><g class="edgeLabel"><g transform="translate(0, 0)" class="label"><foreignObject height="0" width="0"><div style="display: inline-block; white-space: nowrap;" xmlns="http://www.w3.org/1999/xhtml"><span class="edgeLabel"></span></div></foreignObject></g></g><g class="edgeLabel"><g transform="translate(0, 0)" class="label"><foreignObject height="0" width="0"><div style="display: inline-block; white-space: nowrap;" xmlns="http://www.w3.org/1999/xhtml"><span class="edgeLabel"></span></div></foreignObject></g></g><g class="edgeLabel"><g transform="translate(0, 0)" class="label"><foreignObject height="0" width="0"><div style="display: inline-block; white-space: nowrap;" xmlns="http://www.w3.org/1999/xhtml"><span class="edgeLabel"></span></div></foreignObject></g></g><g class="edgeLabel"><g transform="translate(0, 0)" class="label"><foreignObject height="0" width="0"><div style="display: inline-block; white-space: nowrap;" xmlns="http://www.w3.org/1999/xhtml"><span class="edgeLabel"></span></div></foreignObject></g></g><g class="edgeLabel"><g transform="translate(0, 0)" class="label"><foreignObject height="0" width="0"><div style="display: inline-block; white-space: nowrap;" xmlns="http://www.w3.org/1999/xhtml"><span class="edgeLabel"></span></div></foreignObject></g></g><g class="edgeLabel"><g transform="translate(0, 0)" class="label"><foreignObject height="0" width="0"><div style="display: inline-block; white-space: nowrap;" xmlns="http://www.w3.org/1999/xhtml"><span class="edgeLabel"></span></div></foreignObject></g></g><g class="edgeLabel"><g transform="translate(0, 0)" class="label"><foreignObject height="0" width="0"><div style="display: inline-block; white-space: nowrap;" xmlns="http://www.w3.org/1999/xhtml"><span class="edgeLabel"></span></div></foreignObject></g></g><g class="edgeLabel"><g transform="translate(0, 0)" class="label"><foreignObject height="0" width="0"><div style="display: inline-block; white-space: nowrap;" xmlns="http://www.w3.org/1999/xhtml"><span class="edgeLabel"></span></div></foreignObject></g></g><g class="edgeLabel"><g transform="translate(0, 0)" class="label"><foreignObject height="0" width="0"><div style="display: inline-block; white-space: nowrap;" xmlns="http://www.w3.org/1999/xhtml"><span class="edgeLabel"></span></div></foreignObject></g></g><g class="edgeLabel"><g transform="translate(0, 0)" class="label"><foreignObject height="0" width="0"><div style="display: inline-block; white-space: nowrap;" xmlns="http://www.w3.org/1999/xhtml"><span class="edgeLabel"></span></div></foreignObject></g></g><g class="edgeLabel"><g transform="translate(0, 0)" class="label"><foreignObject height="0" width="0"><div style="display: inline-block; white-space: nowrap;" xmlns="http://www.w3.org/1999/xhtml"><span class="edgeLabel"></span></div></foreignObject></g></g><g class="edgeLabel"><g transform="translate(0, 0)" class="label"><foreignObject height="0" width="0"><div style="display: inline-block; white-space: nowrap;" xmlns="http://www.w3.org/1999/xhtml"><span class="edgeLabel"></span></div></foreignObject></g></g><g class="edgeLabel"><g transform="translate(0, 0)" class="label"><foreignObject height="0" width="0"><div style="display: inline-block; white-space: nowrap;" xmlns="http://www.w3.org/1999/xhtml"><span class="edgeLabel"></span></div></foreignObject></g></g></g><g class="nodes"><g transform="translate(1251.15625, 438.53125381469727)" data-id="SQL" data-node="true" id="flowchart-SQL-17" class="node default default flowchart-label"><path transform="translate(-37.015625,-30.698422044276967)" d="M 0,9.298948029517978 a 37.015625,9.298948029517978 0,0,0 74.03125 0 a 37.015625,9.298948029517978 0,0,0 -74.03125 0 l 0,42.79894802951798 a 37.015625,9.298948029517978 0,0,0 74.03125 0 l 0,-42.79894802951798" style=""/><g transform="translate(-29.515625, -9.25)" style="" class="label"><rect/><foreignObject height="18.5" width="59.03125"><div style="display: inline-block; white-space: nowrap;" xmlns="http://www.w3.org/1999/xhtml"><span class="nodeLabel">Postgres</span></div></foreignObject></g></g><g transform="translate(1268.83203125, 727.6152687072754)" data-id="Obs" data-node="true" id="flowchart-Obs-18" class="node default default flowchart-label"><rect height="33.5" width="274.8984375" y="-16.75" x="-137.44921875" ry="0" rx="0" style="" class="basic label-container"/><g transform="translate(-129.94921875, -9.25)" style="" class="label"><rect/><foreignObject height="18.5" width="259.8984375"><div style="display: inline-block; white-space: nowrap;" xmlns="http://www.w3.org/1999/xhtml"><span class="nodeLabel">Langfuse + OpenTelemetry + Metrics</span></div></foreignObject></g></g><g transform="translate(1271.15625, 606.3595752716064)" data-id="Agents" data-node="true" id="flowchart-Agents-19" class="node default default flowchart-label"><rect height="33.5" width="166.296875" y="-16.75" x="-83.1484375" ry="0" rx="0" style="" class="basic label-container"/><g transform="translate(-75.6484375, -9.25)" style="" class="label"><rect/><foreignObject height="18.5" width="151.296875"><div style="display: inline-block; white-space: nowrap;" xmlns="http://www.w3.org/1999/xhtml"><span class="nodeLabel">Agent Desktop / CRM</span></div></foreignObject></g></g><g transform="translate(924.25390625, 606.3595752716064)" data-id="LLM" data-node="true" id="flowchart-LLM-15" class="node default default flowchart-label"><rect height="33.5" width="234.2578125" y="-16.75" x="-117.12890625" ry="0" rx="0" style="" class="basic label-container"/><g transform="translate(-109.62890625, -9.25)" style="" class="label"><rect/><foreignObject height="18.5" width="219.2578125"><div style="display: inline-block; white-space: nowrap;" xmlns="http://www.w3.org/1999/xhtml"><span class="nodeLabel">LLM Gateway / Model Provider</span></div></foreignObject></g></g><g transform="translate(680.34765625, 606.3595752716064)" data-id="Eval" data-node="true" id="flowchart-Eval-16" class="node default default flowchart-label"><rect height="33.5" width="153.5546875" y="-16.75" x="-76.77734375" ry="0" rx="0" style="" class="basic label-container"/><g transform="translate(-69.27734375, -9.25)" style="" class="label"><rect/><foreignObject height="18.5" width="138.5546875"><div style="display: inline-block; white-space: nowrap;" xmlns="http://www.w3.org/1999/xhtml"><span class="nodeLabel">Offline Eval Runner</span></div></foreignObject></g></g><g transform="translate(218.126953125, 308.45862579345703)" data-id="Ingestion" data-node="true" id="flowchart-Ingestion-10" class="node default default flowchart-label"><rect height="33.5" width="218.5859375" y="-16.75" x="-109.29296875" ry="0" rx="0" style="" class="basic label-container"/><g transform="translate(-101.79296875, -9.25)" style="" class="label"><rect/><foreignObject height="18.5" width="203.5859375"><div style="display: inline-block; white-space: nowrap;" xmlns="http://www.w3.org/1999/xhtml"><span class="nodeLabel">Document Ingestion Pipeline</span></div></foreignObject></g></g><g transform="translate(290.2734375, 200.10431289672852)" data-id="Store" data-node="true" id="flowchart-Store-11" class="node default default flowchart-label"><path transform="translate(-122.83984375,-41.604311126098594)" d="M 0,16.569540750732394 a 122.83984375,16.569540750732394 0,0,0 245.6796875 0 a 122.83984375,16.569540750732394 0,0,0 -245.6796875 0 l 0,50.06954075073239 a 122.83984375,16.569540750732394 0,0,0 245.6796875 0 l 0,-50.06954075073239" style=""/><g transform="translate(-115.33984375, -9.25)" style="" class="label"><rect/><foreignObject height="18.5" width="230.6796875"><div style="display: inline-block; white-space: nowrap;" xmlns="http://www.w3.org/1999/xhtml"><span class="nodeLabel">Object Storage / Admin Uploads</span></div></foreignObject></g></g><g transform="translate(133.71875, 438.53125381469727)" data-id="Embed" data-node="true" id="flowchart-Embed-12" class="node default default flowchart-label"><rect height="33.5" width="149.1953125" y="-16.75" x="-74.59765625" ry="0" rx="0" style="" class="basic label-container"/><g transform="translate(-67.09765625, -9.25)" style="" class="label"><rect/><foreignObject height="18.5" width="134.1953125"><div style="display: inline-block; white-space: nowrap;" xmlns="http://www.w3.org/1999/xhtml"><span class="nodeLabel">Embedding Worker</span></div></foreignObject></g></g><g transform="translate(218.126953125, 606.3595752716064)" data-id="Qdrant" data-node="true" id="flowchart-Qdrant-13" class="node default default flowchart-label"><path transform="translate(-32.21875,-29.505691191026063)" d="M 0,8.503794127350709 a 32.21875,8.503794127350709 0,0,0 64.4375 0 a 32.21875,8.503794127350709 0,0,0 -64.4375 0 l 0,42.00379412735071 a 32.21875,8.503794127350709 0,0,0 64.4375 0 l 0,-42.00379412735071" style=""/><g transform="translate(-24.71875, -9.25)" style="" class="label"><rect/><foreignObject height="18.5" width="49.4375"><div style="display: inline-block; white-space: nowrap;" xmlns="http://www.w3.org/1999/xhtml"><span class="nodeLabel">Qdrant</span></div></foreignObject></g></g><g transform="translate(357.89453125, 438.53125381469727)" data-id="Alias" data-node="true" id="flowchart-Alias-14" class="node default default flowchart-label"><rect height="33.5" width="199.15625" y="-16.75" x="-99.578125" ry="0" rx="0" style="" class="basic label-container"/><g transform="translate(-92.078125, -9.25)" style="" class="label"><rect/><foreignObject height="18.5" width="184.15625"><div style="display: inline-block; white-space: nowrap;" xmlns="http://www.w3.org/1999/xhtml"><span class="nodeLabel">Versioned Collection Alias</span></div></foreignObject></g></g><g transform="translate(1894.541015625, 200.10431289672852)" data-id="LB" data-node="true" id="flowchart-LB-6" class="node default default flowchart-label"><rect height="33.5" width="116.0234375" y="-16.75" x="-58.01171875" ry="0" rx="0" style="" class="basic label-container"/><g transform="translate(-50.51171875, -9.25)" style="" class="label"><rect/><foreignObject height="18.5" width="101.0234375"><div style="display: inline-block; white-space: nowrap;" xmlns="http://www.w3.org/1999/xhtml"><span class="nodeLabel">Load Balancer</span></div></foreignObject></g></g><g transform="translate(1894.541015625, 308.45862579345703)" data-id="API" data-node="true" id="flowchart-API-7" class="node default default flowchart-label"><rect height="33.5" width="208.4140625" y="-16.75" x="-104.20703125" ry="0" rx="0" style="" class="basic label-container"/><g transform="translate(-96.70703125, -9.25)" style="" class="label"><rect/><foreignObject height="18.5" width="193.4140625"><div style="display: inline-block; white-space: nowrap;" xmlns="http://www.w3.org/1999/xhtml"><span class="nodeLabel">Channel API / Orchestrator</span></div></foreignObject></g></g><g transform="translate(1610.7109375, 438.53125381469727)" data-id="Memory" data-node="true" id="flowchart-Memory-8" class="node default default flowchart-label"><path transform="translate(-84.65234375,-38.322628812614475)" d="M 0,14.381752541742983 a 84.65234375,14.381752541742983 0,0,0 169.3046875 0 a 84.65234375,14.381752541742983 0,0,0 -169.3046875 0 l 0,47.88175254174298 a 84.65234375,14.381752541742983 0,0,0 169.3046875 0 l 0,-47.88175254174298" style=""/><g transform="translate(-77.15234375, -9.25)" style="" class="label"><rect/><foreignObject height="18.5" width="154.3046875"><div style="display: inline-block; white-space: nowrap;" xmlns="http://www.w3.org/1999/xhtml"><span class="nodeLabel">Redis Session Memory</span></div></foreignObject></g></g><g transform="translate(1864.71484375, 438.53125381469727)" data-id="Escalation" data-node="true" id="flowchart-Escalation-9" class="node default default flowchart-label"><rect height="33.5" width="198.703125" y="-16.75" x="-99.3515625" ry="0" rx="0" style="" class="basic label-container"/><g transform="translate(-91.8515625, -9.25)" style="" class="label"><rect/><foreignObject height="18.5" width="183.703125"><div style="display: inline-block; white-space: nowrap;" xmlns="http://www.w3.org/1999/xhtml"><span class="nodeLabel">Human Escalation Service</span></div></foreignObject></g></g><g transform="translate(2464.994140625, 606.3595752716064)" data-id="SBC" data-node="true" id="flowchart-SBC-2" class="node default default flowchart-label"><rect height="33.5" width="305.3359375" y="-16.75" x="-152.66796875" ry="0" rx="0" style="" class="basic label-container"/><g transform="translate(-145.16796875, -9.25)" style="" class="label"><rect/><foreignObject height="18.5" width="290.3359375"><div style="display: inline-block; white-space: nowrap;" xmlns="http://www.w3.org/1999/xhtml"><span class="nodeLabel">Session Border Controller or SIP Provider</span></div></foreignObject></g></g><g transform="translate(2400.9375, 727.6152687072754)" data-id="Turn" data-node="true" id="flowchart-Turn-3" class="node default default flowchart-label"><rect height="33.5" width="255.6328125" y="-16.75" x="-127.81640625" ry="0" rx="0" style="" class="basic label-container"/><g transform="translate(-120.31640625, -9.25)" style="" class="label"><rect/><foreignObject height="18.5" width="240.6328125"><div style="display: inline-block; white-space: nowrap;" xmlns="http://www.w3.org/1999/xhtml"><span class="nodeLabel">Turn Detection / Barge-In Control</span></div></foreignObject></g></g><g transform="translate(2319.529296875, 836.1152687072754)" data-id="STT" data-node="true" id="flowchart-STT-4" class="node default default flowchart-label"><rect height="33.5" width="118.1015625" y="-16.75" x="-59.05078125" ry="0" rx="0" style="" class="basic label-container"/><g transform="translate(-51.55078125, -9.25)" style="" class="label"><rect/><foreignObject height="18.5" width="103.1015625"><div style="display: inline-block; white-space: nowrap;" xmlns="http://www.w3.org/1999/xhtml"><span class="nodeLabel">Streaming STT</span></div></foreignObject></g></g><g transform="translate(2398.830078125, 438.53125381469727)" data-id="TTS" data-node="true" id="flowchart-TTS-5" class="node default default flowchart-label"><rect height="33.5" width="120.6796875" y="-16.75" x="-60.33984375" ry="0" rx="0" style="" class="basic label-container"/><g transform="translate(-52.83984375, -9.25)" style="" class="label"><rect/><foreignObject height="18.5" width="105.6796875"><div style="display: inline-block; white-space: nowrap;" xmlns="http://www.w3.org/1999/xhtml"><span class="nodeLabel">Text to Speech</span></div></foreignObject></g></g><g transform="translate(1894.541015625, 41.75)" data-id="Web" data-node="true" id="flowchart-Web-0" class="node default default flowchart-label"><rect height="33.5" width="148.3125" y="-16.75" x="-74.15625" ry="0" rx="0" style="" class="basic label-container"/><g transform="translate(-66.65625, -9.25)" style="" class="label"><rect/><foreignObject height="18.5" width="133.3125"><div style="display: inline-block; white-space: nowrap;" xmlns="http://www.w3.org/1999/xhtml"><span class="nodeLabel">Web / Mobile Chat</span></div></foreignObject></g></g><g transform="translate(2512.6640625, 41.75)" data-id="SIP" data-node="true" id="flowchart-SIP-1" class="node default default flowchart-label"><rect height="33.5" width="125.8671875" y="-16.75" x="-62.93359375" ry="0" rx="0" style="" class="basic label-container"/><g transform="translate(-55.43359375, -9.25)" style="" class="label"><rect/><foreignObject height="18.5" width="110.8671875"><div style="display: inline-block; white-space: nowrap;" xmlns="http://www.w3.org/1999/xhtml"><span class="nodeLabel">SIP / Telephony</span></div></foreignObject></g></g></g></g></g></svg>